HIERARCHY
ROOT hip
{
	OFFSET 0.000000 0.000000 0.000000 
	CHANNELS 6 Xposition Yposition Zposition Xrotation Zrotation Yrotation
	JOINT abdomen
	{
		OFFSET 0.000000 3.402643 0.000000 
		CHANNELS 3 Xrotation Zrotation Yrotation
		JOINT chest
		{
			OFFSET 0.000000 8.438565 -0.680529 
			CHANNELS 3 Xrotation Zrotation Yrotation
			JOINT neck
			{
				OFFSET 0.000000 10.207942 -0.272212 
				CHANNELS 3 Xrotation Zrotation Yrotation
				JOINT head
				{
					OFFSET 0.000000 3.130431 0.000000 
					CHANNELS 3 Xrotation Zrotation Yrotation
					End Site
					{
						OFFSET 0.000000 3.130435 0.000000 
					}
				}
			}
			JOINT lCollar
			{
				OFFSET 3.470700 6.669187 -0.816635 
				CHANNELS 3 Yrotation Zrotation Xrotation
				JOINT lShldr
				{
					OFFSET 3.198488 0.000000 0.000000 
					CHANNELS 3 Zrotation Yrotation Xrotation
					JOINT lForeArm
					{
						OFFSET 10.139888 0.000000 0.000000 
						CHANNELS 3 Yrotation Zrotation Xrotation
						JOINT lHand
						{
							OFFSET 8.370511 0.000000 0.000000 
							CHANNELS 3 Zrotation Yrotation Xrotation
							End Site
							{
								OFFSET 4.083176 0.000000 0.000000 
							}
						}
					}
				}
			}
			JOINT rCollar
			{
				OFFSET -3.470700 6.669187 -0.816635 
				CHANNELS 3 Yrotation Zrotation Xrotation
				JOINT rShldr
				{
					OFFSET -3.198488 0.000000 0.000000 
					CHANNELS 3 Zrotation Yrotation Xrotation
					JOINT rForeArm
					{
						OFFSET -10.139888 0.000000 0.000000 
						CHANNELS 3 Yrotation Zrotation Xrotation
						JOINT rHand
						{
							OFFSET -8.370511 0.000000 0.000000 
							CHANNELS 3 Zrotation Yrotation Xrotation
							End Site
							{
								OFFSET -4.083176 0.000000 0.000000 
							}
						}
					}
				}
			}
		}
	}
	JOINT lThigh
	{
		OFFSET 5.308129 -1.633274 1.361059 
		CHANNELS 3 Xrotation Zrotation Yrotation
		JOINT lShin
		{
			OFFSET -2.041588 -20.007561 0.000000 
			CHANNELS 3 Xrotation Zrotation Yrotation
			JOINT lFoot
			{
				OFFSET 0.000000 -19.190928 -1.224953 
				CHANNELS 3 Xrotation Yrotation Zrotation
				End Site
				{
					OFFSET 0.000000 -2.449906 4.627600 
				}
			}
		}
	}
	JOINT rThigh
	{
		OFFSET -5.308129 -1.633274 1.361059 
		CHANNELS 3 Xrotation Zrotation Yrotation
		JOINT rShin
		{
			OFFSET 2.041588 -20.007561 0.000000 
			CHANNELS 3 Xrotation Zrotation Yrotation
			JOINT rFoot
			{
				OFFSET 0.000000 -19.190928 -1.224953 
				CHANNELS 3 Xrotation Yrotation Zrotation
				End Site
				{
					OFFSET 0.000000 -2.449906 4.627600 
				}
			}
		}
	}
}
MOTION
Frames: 16
Frame Time: 0.033333
2.300499 40.705421 2.300499 -11.696262 23.273834 80.176956 19.410391 8.747185 -26.622061 6.969091 5.090382 5.882975 -8.584756 5.429116 -0.833746 22.515873 -28.919868 -65.172913 1.992188 -2.001953 0.000341 -94.074928 -108.139305 19.812019 -56.797245 -0.555738 8.637781 -57.860165 54.015797 -91.901978 -2.001953 1.992188 0.000000 14.962656 23.279528 -53.895470 75.750046 0.479699 8.818661 -3.455927 -58.195766 -13.948627 -43.383957 3.993459 0.347894 38.456619 -0.812496 -2.943845 35.782215 -1.212871 -1.856634 -59.736317 -4.130312 -0.383442 38.722469 0.756090 2.899700 40.882065 1.335245 1.636288 
2.300499 40.449959 2.300499 -11.696262 23.273834 80.176956 16.426228 7.177118 -33.162811 6.969091 5.090382 5.882975 -8.584756 5.429116 -0.833746 23.716362 -28.586786 -58.868313 1.992188 -2.001953 0.000341 -108.997711 -107.325996 37.110897 -56.675583 -0.547489 8.631977 -61.408215 54.902317 -95.275558 -2.001953 1.992188 0.000000 34.465019 18.089308 -39.510502 102.503212 0.526634 9.097239 -12.674332 -69.982178 -6.076614 -44.737167 3.992664 0.366187 38.729038 -0.777214 -2.984601 36.885868 -1.242811 -1.839656 -60.744991 -4.130538 -0.391201 38.732239 0.755598 2.900019 41.868774 1.354659 1.619463 
2.300499 40.500088 2.300499 -11.696262 23.273834 80.176956 17.173981 7.620402 -31.480728 6.969091 5.090382 5.882975 -8.584756 5.429116 -0.833746 23.404743 -28.667587 -60.496796 1.992188 -2.001953 0.000341 -104.956306 -107.405075 32.437279 -56.675529 -0.555647 8.637341 -60.405579 54.693638 -94.347595 -2.001953 1.992188 0.000000 32.690643 17.851805 -41.775524 101.341660 0.527341 9.088248 -10.217558 -64.601227 -8.302640 -45.897247 3.993718 0.338550 40.262474 -0.724849 -3.033109 36.495064 -1.237333 -1.827397 -60.892891 -4.130751 -0.379026 38.762142 0.761717 2.884105 41.984905 1.381563 1.617293 
2.300499 40.550217 2.300499 -11.696262 23.273834 80.176956 17.955307 8.035039 -29.783794 6.969091 5.090382 5.882975 -8.584756 5.429116 -0.833746 23.084913 -28.745752 -62.129601 1.992188 -2.001953 0.000341 -100.990852 -107.573814 27.839142 -56.676949 -0.554154 8.642707 -59.429413 54.476517 -93.439514 -2.001953 1.992188 0.000000 30.926092 17.536133 -44.022335 100.180191 0.536805 9.069695 -8.586474 -59.186684 -9.709517 -47.034657 3.993349 0.348460 41.804104 -0.637283 -3.116994 36.085648 -1.209603 -1.842123 -61.048416 -4.130291 -0.395911 38.800922 0.755459 2.893653 42.102657 1.372403 1.615312 
2.300499 40.680428 2.300499 -11.696262 23.273834 80.176956 19.410391 8.747185 -26.622061 6.969091 5.090382 5.882975 -8.584756 5.429116 -0.833746 22.506105 -28.919870 -65.172913 1.992188 -2.001953 0.000341 -94.012428 -108.151550 19.717346 -56.736366 -0.559769 8.640312 -57.740055 54.027782 -91.853333 -2.001953 1.992188 0.000000 20.565311 20.844002 -51.449814 85.051674 0.488727 8.926584 -4.965706 -54.539566 -12.630550 -48.242496 3.992907 0.333251 43.824131 -0.533046 -3.206209 35.245777 -1.185211 -1.854589 -60.989826 -4.130457 -0.393114 38.829983 0.745847 2.901613 42.005432 1.360045 1.617073 
2.300499 40.810631 2.300499 -11.696262 23.273834 80.176956 20.920031 9.378745 -23.435818 6.969091 5.090382 5.882975 -8.584756 5.429116 -0.833746 21.944826 -29.117109 -68.222580 1.992188 -2.001953 0.000341 -87.588768 -109.002892 12.163946 -56.806675 -0.557169 8.635590 -56.083031 53.552998 -90.306816 -2.001953 1.992188 0.000000 9.627956 22.796938 -59.527081 69.932228 0.482950 8.758357 -2.076788 -49.816166 -14.807154 -49.468121 3.993510 0.338516 45.862255 -0.423058 -3.320160 34.435432 -1.154759 -1.884503 -60.941715 -4.130615 -0.381353 38.869392 0.745682 2.893790 41.936825 1.366161 1.599999 
2.300499 40.885761 2.300499 -11.696262 23.273834 80.176956 21.741726 9.685491 -21.720409 6.969091 5.090382 5.882975 -8.584756 5.429116 -0.833746 21.638296 -29.232332 -69.853874 1.992188 -2.001953 0.000341 -84.437881 -109.565186 8.403058 -56.867542 -0.553146 8.633106 -55.283661 53.278008 -89.511513 -2.001953 1.992188 0.000000 1.989111 23.467913 -64.529198 59.465633 0.512636 8.643345 -0.371253 -47.960255 -16.055811 -50.526848 4.002681 0.333631 47.910522 -0.309426 -3.410487 33.439564 -1.119401 -1.907406 -60.744991 -4.130538 -0.391201 38.908066 0.745731 2.905420 41.692146 1.369722 1.613290 
2.300499 40.960873 2.300499 -11.696262 23.273834 80.176956 22.570906 9.961226 -19.990404 6.969091 5.090382 5.882975 -8.584756 5.429116 -0.833746 21.353262 -29.357641 -71.497147 1.992188 -2.001953 0.000341 -81.499786 -110.182686 4.848731 -56.928364 -0.557313 8.635908 -54.487762 53.004734 -88.709114 -2.001953 1.992188 0.000000 -5.703302 23.519907 -69.600616 48.995396 0.558488 8.534892 1.216098 -46.087997 -17.185883 -51.585968 4.003039 0.331782 49.988823 -0.198706 -3.471200 32.442013 -1.117396 -1.913530 -60.548977 -4.130472 -0.391638 38.936626 0.745765 2.926252 41.458736 1.340608 1.626495 
2.300499 40.705402 2.300499 -11.696262 23.273834 80.176956 19.408894 8.746443 -26.631685 6.969091 5.090382 5.882975 -8.584756 5.429116 -0.833746 22.515873 -28.919868 -65.172913 1.992188 -2.001953 0.000341 -94.074928 -108.139305 19.812019 -56.797245 -0.555738 8.637781 -57.860165 54.015797 -91.901978 -2.001953 1.992188 0.000000 14.962656 23.279528 -53.895470 75.750046 0.479699 8.818661 -3.455927 -58.195766 -13.948627 -52.233097 4.003195 0.331811 51.568165 -0.111250 -3.544972 31.486544 -1.057446 -1.942177 -60.246258 -4.130727 -0.377565 38.966389 0.761744 2.913624 41.136646 1.327619 1.631939 
2.300499 40.449963 2.300499 -11.696262 23.273834 80.176956 16.426228 7.177118 -33.162811 6.969091 5.090382 5.882975 -8.584756 5.429116 -0.833746 23.716362 -28.586786 -58.868313 1.992188 -2.001953 0.000341 -108.997711 -107.325996 37.110897 -56.675583 -0.547489 8.631977 -61.408215 54.902317 -95.275558 -2.001953 1.992188 0.000000 34.462387 18.094831 -39.521191 102.503212 0.526634 9.097239 -12.674332 -69.982178 -6.076614 -52.870979 3.992832 0.336220 53.156750 -0.006733 -3.618701 30.539339 -1.027424 -1.953725 -59.951153 -4.130306 -0.393295 38.985779 0.746309 2.919150 40.823490 1.333183 1.637267 
2.300499 40.490028 2.300499 -11.696262 23.273834 80.176956 16.956121 7.497761 -31.964470 6.969091 5.090382 5.882975 -8.584756 5.429116 -0.833746 23.491829 -28.637970 -60.032963 1.992188 -2.001953 0.000341 -106.090027 -107.371643 33.751938 -56.675583 -0.547489 8.631977 -60.695240 54.748077 -94.628197 -2.001953 1.992188 0.000000 31.164127 19.542133 -42.132488 97.554436 0.515405 9.055966 -10.201313 -63.595612 -8.325473 -52.861206 3.992858 0.335774 53.771790 0.012763 -3.628279 29.875530 -1.001218 -1.970529 -59.610073 -4.130681 -0.367321 39.016052 0.751951 2.893404 40.461632 1.331787 1.661734 
2.300499 40.530109 2.300499 -11.696262 23.273834 80.176956 17.499193 7.804948 -30.754669 6.969091 5.090382 5.882975 -8.584756 5.429116 -0.833746 23.275539 -28.698061 -61.203297 1.992188 -2.001953 0.000341 -103.211372 -107.468323 30.411442 -56.675583 -0.547489 8.631977 -59.988514 54.598019 -93.975945 -2.001953 1.992188 0.000000 27.784737 20.841673 -44.852066 92.596184 0.505246 9.007807 -8.614553 -57.184204 -9.676888 -52.851433 3.992882 0.335328 54.405586 0.051732 -3.648421 29.230877 -0.983476 -1.978203 -59.265408 -4.130244 -0.390131 39.034729 0.736010 2.918133 40.100613 1.313429 1.676850 
2.300499 40.650307 2.300499 -11.696262 23.273834 80.176956 18.727709 8.434844 -28.083689 6.969091 5.090382 5.882975 -8.584756 5.429116 -0.833746 22.774080 -28.832752 -63.774330 1.992188 -2.001953 0.000341 -97.131706 -107.849045 23.373684 -56.695812 -0.557020 8.638340 -58.509716 54.237751 -92.587524 -2.001953 1.992188 0.000000 20.094219 22.779224 -50.783356 82.182205 0.484571 8.894800 -5.850923 -54.186508 -11.905775 -50.095875 3.993764 0.337240 51.480350 -0.111159 -3.540801 29.426167 -0.989943 -1.975983 -58.511944 -4.130499 -0.374706 38.976604 0.755602 2.902378 39.407639 1.285522 1.688092 
2.300499 40.770508 2.300499 -11.696262 23.273834 80.176956 19.991125 8.996764 -25.401262 6.969091 5.090382 5.882975 -8.584756 5.429116 -0.833746 22.287334 -28.993221 -66.346596 1.992188 -2.001953 0.000341 -91.427795 -108.459442 16.694738 -56.726986 -0.550172 8.637143 -57.065990 53.855789 -91.215370 -2.001953 1.992188 0.000000 12.147462 23.949146 -57.015007 71.777100 0.489824 8.789796 -3.458496 -51.127663 -13.760445 -47.340000 3.993302 0.332950 48.535809 -0.289197 -3.412386 29.621021 -1.003893 -1.974585 -57.768188 -4.130709 -0.359975 38.918522 0.771512 2.885380 38.724194 1.263082 1.698939 
2.300499 40.865707 2.300499 -11.696262 23.273834 80.176956 21.270332 9.510670 -22.700642 6.969091 5.090382 5.882975 -8.584756 5.429116 -0.833746 21.809090 -29.168592 -68.918816 1.992188 -2.001953 0.000341 -86.202927 -109.236732 10.517700 -56.828415 -0.548896 8.636547 -55.763786 53.438812 -89.952271 -2.001953 1.992188 0.000000 3.200139 24.186966 -63.327854 60.393223 0.513386 8.657145 -0.991294 -48.630329 -15.606750 -44.680676 3.992930 0.335072 43.365490 -0.572138 -3.188911 32.140568 -1.086318 -1.906254 -58.256554 -4.130564 -0.382066 38.820438 0.755472 2.894621 39.310226 1.278856 1.680397 
2.300499 40.960892 2.300499 -11.696262 23.273834 80.176956 22.570906 9.961226 -19.990404 6.969091 5.090382 5.882975 -8.584756 5.429116 -0.833746 21.353262 -29.357641 -71.497147 1.992188 -2.001953 0.000341 -81.499786 -110.182686 4.848731 -56.928364 -0.557313 8.635908 -54.487762 53.004734 -88.709114 -2.001953 1.992188 0.000000 -5.703302 23.519907 -69.600616 48.995396 0.558488 8.534892 1.216098 -46.087997 -17.185883 -42.020630 3.993677 0.329863 38.182823 -0.841878 -2.939771 34.670612 -1.146421 -1.880259 -58.746349 -4.130450 -0.385358 38.732239 0.755596 2.900018 39.895943 1.301593 1.661795 
